<?xml version="1.0" standalone="no"?>
<!DOCTYPE svg PUBLIC "-//W3C//DTD SVG 20010904//EN"
 "http://www.w3.org/TR/2001/REC-SVG-20010904/DTD/svg10.dtd">
<svg version="1.0" xmlns="http://www.w3.org/2000/svg"
 width="912.000000pt" height="273.000000pt" viewBox="0 0 912.000000 273.000000"
 preserveAspectRatio="xMidYMid meet">
<metadata>
Created by potrace 1.16, written by Peter Selinger 2001-2019
</metadata>
<g transform="translate(0.000000,273.000000) scale(0.100000,-0.100000)"
fill="#000000" stroke="none">
<path d="M5509 1897 c-67 -19 -110 -48 -144 -95 -24 -35 -30 -55 -33 -112 -2
-37 1 -84 7 -103 20 -59 94 -117 216 -171 172 -75 220 -121 212 -207 -5 -57
-30 -93 -83 -119 -100 -50 -232 -10 -295 89 l-15 24 -42 -22 c-23 -12 -42 -25
-42 -30 0 -19 62 -92 102 -118 64 -43 95 -54 169 -60 98 -8 169 17 235 82 44
44 54 60 64 110 9 45 10 71 1 111 -22 96 -76 146 -239 217 -57 25 -119 58
-139 73 -67 51 -78 133 -26 194 56 68 190 65 263 -5 l26 -25 38 31 37 32 -32
33 c-63 65 -188 97 -280 71z"/>
<path d="M8547 1900 c-117 -30 -187 -115 -187 -230 0 -118 54 -176 240 -259
70 -32 135 -69 155 -88 75 -73 52 -198 -45 -237 -97 -39 -228 -3 -273 75 -12
21 -26 39 -32 39 -5 0 -27 -10 -48 -23 l-37 -23 30 -47 c75 -118 265 -170 401
-110 130 58 185 214 120 341 -30 59 -81 95 -212 153 -134 58 -184 95 -198 144
-11 40 0 99 24 125 53 59 177 64 253 10 23 -16 46 -30 50 -30 12 1 62 48 62
59 0 15 -59 57 -111 80 -55 25 -140 34 -192 21z"/>
<path d="M297 1893 c-4 -3 -7 -210 -7 -460 l0 -453 45 0 45 0 0 357 c0 207 4
353 9 348 5 -6 48 -100 96 -210 48 -110 116 -265 151 -345 l63 -145 41 0 42 0
152 342 c83 188 155 345 159 349 4 4 7 -151 7 -345 l0 -352 48 3 47 3 0 455 0
455 -46 3 c-29 2 -49 -2 -56 -10 -5 -7 -85 -185 -178 -395 -93 -211 -172 -383
-175 -383 -3 0 -65 139 -139 308 -74 169 -152 346 -174 395 l-40 87 -42 0
c-23 0 -45 -3 -48 -7z"/>
<path d="M1629 1873 c-6 -16 -41 -113 -79 -218 -38 -104 -107 -296 -154 -425
-47 -129 -86 -239 -86 -243 0 -4 23 -7 52 -5 l51 3 38 105 37 105 203 0 204 0
23 -65 c56 -162 48 -150 103 -150 27 0 49 4 49 10 0 8 -60 178 -237 665 -97
269 -83 245 -143 245 -46 0 -51 -3 -61 -27z m149 -338 c38 -110 73 -210 76
-222 l7 -23 -171 0 c-160 0 -172 1 -165 18 4 9 40 112 81 227 41 116 77 217
80 225 7 18 0 36 92 -225z"/>
<path d="M2097 1893 c-4 -3 -7 -26 -7 -50 l0 -43 125 0 125 0 2 -407 3 -408
48 -3 47 -3 0 410 0 411 124 0 124 0 4 46 c2 25 1 47 -1 50 -7 7 -587 5 -594
-3z"/>
<path d="M2827 1894 c-4 -4 -7 -211 -7 -461 l0 -453 50 0 50 0 0 205 0 205
250 0 250 0 0 -205 0 -205 50 0 50 0 0 461 0 460 -47 -3 -48 -3 -3 -202 -2
-203 -250 0 -250 0 -2 203 -3 202 -40 3 c-23 2 -44 0 -48 -4z"/>
<path d="M3757 1893 c-4 -3 -7 -210 -7 -460 l0 -453 250 0 250 0 0 50 0 50
-200 0 -200 0 0 155 0 155 176 0 175 0 -3 48 -3 47 -172 3 -173 2 0 155 0 155
200 0 200 0 0 50 0 50 -243 0 c-134 0 -247 -3 -250 -7z"/>
<path d="M4452 1548 l3 -353 27 -51 c52 -99 155 -162 281 -171 159 -12 302 70
353 203 17 45 19 79 19 384 l0 335 -45 0 -45 0 -5 -330 c-5 -319 -6 -331 -28
-373 -44 -83 -138 -128 -247 -119 -94 7 -160 51 -201 134 -17 35 -19 66 -21
363 l-1 325 -47 3 -46 3 3 -353z"/>
<path d="M6397 1893 c-4 -3 -7 -210 -7 -460 l0 -453 139 0 c76 0 162 5 192 10
239 46 410 282 371 514 -33 204 -193 360 -392 386 -86 11 -293 13 -303 3z
m371 -117 c107 -39 200 -145 223 -254 35 -170 -43 -332 -196 -407 -53 -26 -71
-30 -182 -33 l-123 -4 0 362 0 363 118 -6 c68 -3 135 -11 160 -21z"/>
<path d="M7297 1894 c-4 -4 -7 -211 -7 -461 l0 -453 50 0 50 0 -2 458 -3 457
-40 3 c-23 2 -44 0 -48 -4z"/>
<path d="M7830 1875 c-48 -125 -320 -880 -320 -887 0 -5 23 -8 51 -6 l51 3 38
105 37 105 204 0 204 0 36 -105 36 -105 53 -3 52 -3 -7 28 c-3 15 -35 106 -71
203 -35 96 -106 290 -157 430 l-92 255 -53 3 c-48 3 -53 1 -62 -23z m224 -562
l7 -23 -170 0 c-94 0 -171 2 -171 4 0 2 12 35 26 72 14 38 47 132 74 209 26
77 53 154 60 170 11 29 15 20 90 -190 42 -121 80 -230 84 -242z"/>
</g>
</svg>
